<svg xmlns="http://www.w3.org/2000/svg"
     viewBox="0 0 512 512"
     fill="none"
     stroke="currentColor"
     stroke-width="8"
     stroke-linejoin="round"
     class="icon-button">
    <path fill="currentColor"
          d="M437 280.5c-8.7-39.3-38.1-71-76.2-83 16.9-13.6 27.7-34.4 27.7-57.7 0-40.8-33.2-74-74-74s-74 33.2-74 74c0 23.3 10.9 44.1 27.8 57.7-18.8 5.9-35.4 16.6-48.5 30.6-13.1-14-29.8-24.7-48.5-30.6 16.9-13.6 27.7-34.4 27.7-57.7 0-40.8-33.2-74-74-74S51.2 99 51.2 139.8c0 23.3 10.8 44.1 27.7 57.7C33.2 211.9 0 254.7 0 305.1v36.4c0 6 4.8 10.8 10.7 10.8h336c-.4 3.5-.7 7.2-.7 10.9 0 45.7 37.2 83 83 83s83-37.3 83-83c0-45.7-33-81.2-75-85.3zM262.1 139.8c0-28.9 23.5-52.5 52.5-52.5s52.5 23.6 52.5 52.5-23.6 52.5-52.5 52.5-52.5-23.6-52.5-52.5zM72.7 139.8c0-29 23.5-52.5 52.4-52.5s52.5 23.6 52.5 52.5-23.6 52.5-52.5 52.5-52.4-23.6-52.4-52.5zm156.1 191h-207.3v-25.7c0-50.3 41-91.3 91.3-91.3h24.7c44 0 80.9 31.3 89.4 72.8h-59.6c-6 0-10.8 4.8-10.8 10.8s4.8 10.7 10.8 10.7h61.5v22.7zm21.5 0v-25.7c0-21.9-6.3-42.3-17.1-59.7 16.8-19.3 41.5-31.6 69-31.6h24.8c42.1 0 77.6 28.7 88.1 67.6-28.2 4.7-51.6 23.8-62.5 49.4h-102.3zm178.7 93.8c-34 0-61.5-27.6-61.5-61.5s27.6-61.5 61.5-61.5 61.5 27.6 61.5 61.5-27.6 61.5-61.5 61.5z"/>
    <path fill="currentColor"
          d="M450 352.4h-10.3v-10.3c0-6-4.8-10.8-10.8-10.8s-10.7 4.8-10.7 10.8v10.3h-10.3c-6 0-10.8 4.8-10.8 10.8s4.8 10.7 10.8 10.7h10.3v10.3c0 6 4.8 10.8 10.7 10.8s10.8-4.8 10.8-10.8v-10.3H450c6 0 10.7-4.8 10.7-10.7 0-6-4.7-10.8-10.7-10.8zM125.1 286.6h-10.8c-6 0-10.8 4.8-10.8 10.8s4.8 10.7 10.8 10.7h10.8c6 0 10.8-4.8 10.8-10.7 0-6-4.8-10.8-10.8-10.8z"/>
</svg>